Coordinates
version=1
nRows=24
nColumns=24
inDegrees=yes

Units are S.I. units (second, meters, Newtons, ...)
Angles are in degrees.

endheader
time	pelvis_tilt	pelvis_list	pelvis_rotation	pelvis_tx	pelvis_ty	pelvis_tz	hip_flexion_r	hip_adduction_r	hip_rotation_r	knee_angle_r	ankle_angle_r	subtalar_angle_r	mtp_angle_r	hip_flexion_l	hip_adduction_l	hip_rotation_l	knee_angle_l	ankle_angle_l	subtalar_angle_l	mtp_angle_l	lumbar_extension	lumbar_bending	lumbar_rotation
      5.15000000	     65.84676838	      4.92621989	     -1.82727319	      0.56085122	      1.06159180	     -0.30745009	      2.01432125	    -13.33025273	      2.57034591	    -61.33455449	    -18.73641197	     -2.76843731	      0.00000000	      1.57153116	     -5.23104703	      0.80725712	    -59.37794018	     -6.91763771	     28.86243889	      0.00000000	      0.00000000	      0.00000000	      0.00000000
      5.16000000	     65.82286168	      4.95932198	     -1.81798084	      0.56083970	      1.06147039	     -0.30739574	      2.07022358	    -13.40874595	      2.63783317	    -61.46539776	    -18.86054290	     -2.93741911	      0.00000000	      1.60312770	     -5.29278279	      0.97459790	    -59.50984061	     -6.90447193	     28.68682058	      0.00000000	      0.00000000	      0.00000000	      0.00000000
      5.17000000	     65.79262772	      4.99587790	     -1.80540934	      0.56082016	      1.06135555	     -0.30734694	      2.12022221	    -13.48627362	      2.72076253	    -61.58405591	    -18.96088957	     -3.09068715	      0.00000000	      1.64055194	     -5.35683464	      1.15433899	    -59.65103634	     -6.88433145	     28.49688809	      0.00000000	      0.00000000	      0.00000000	      0.00000000
      5.18000000	     65.75906075	      5.03341264	     -1.79180868	      0.56079802	      1.06128131	     -0.30731445	      2.15981980	    -13.55935475	      2.81627742	    -61.69383755	    -19.01585363	     -3.20471105	      0.00000000	      1.67901028	     -5.42232493	      1.34599514	    -59.79811740	     -6.85961429	     28.29632506	      0.00000000	      0.00000000	      0.00000000	      0.00000000
      5.19000000	     65.72598852	      5.06924551	     -1.77875326	      0.56079333	      1.06124560	     -0.30730075	      2.18621754	    -13.62610451	      2.92204747	    -61.79656091	    -19.00943680	     -3.26155188	      0.00000000	      1.71383824	     -5.48901209	      1.54839730	    -59.94808885	     -6.83356551	     28.08873738	      0.00000000	      0.00000000	      0.00000000	      0.00000000
      5.20000000	     65.69580656	      5.10160119	     -1.76631451	      0.56080812	      1.06123651	     -0.30730467	      2.19687069	    -13.68660432	      3.03887089	    -61.88732423	    -18.93206709	     -3.25188147	      0.00000000	      1.74220811	     -5.55698484	      1.75946442	    -60.10039043	     -6.80931904	     27.87677996	      0.00000000	      0.00000000	      0.00000000	      0.00000000
      5.21000000	     65.66848635	      5.13078805	     -1.75412743	      0.56082764	      1.06124477	     -0.30732624	      2.18829020	    -13.74258888	      3.17025803	    -61.95588949	    -18.78195216	     -3.17660590	      0.00000000	      1.76466316	     -5.62691697	      1.97674272	    -60.25668036	     -6.78951838	     27.66132755	      0.00000000	      0.00000000	      0.00000000	      0.00000000
      5.22000000	     65.64260754	      5.15882173	     -1.74213949	      0.56084731	      1.06123428	     -0.30735310	      2.15756922	    -13.79630856	      3.31902878	    -61.99365482	    -18.56704476	     -3.04683348	      0.00000000	      1.78430405	     -5.69964174	      2.19768109	    -60.41870472	     -6.77643820	     27.44102826	      0.00000000	      0.00000000	      0.00000000	      0.00000000
      5.23000000	     65.61787320	      5.18752709	     -1.73011108	      0.56088384	      1.06114746	     -0.30735733	      2.10637984	    -13.84883646	      3.48298039	    -62.00180784	    -18.30635030	     -2.88210236	      0.00000000	      1.80378515	     -5.77474242	      2.41929578	    -60.58607606	     -6.77221333	     27.21253975	      0.00000000	      0.00000000	      0.00000000	      0.00000000
      5.24000000	     65.59639029	      5.21738052	     -1.71747346	      0.56093708	      1.06099557	     -0.30732978	      2.04331699	    -13.89919339	      3.65295900	    -61.99504893	    -18.02856803	     -2.70700719	      0.00000000	      1.82271570	     -5.85009704	      2.63845187	    -60.75602593	     -6.77879438	     26.97140476	      0.00000000	      0.00000000	      0.00000000	      0.00000000
      5.25000000	     65.58080506	      5.24751709	     -1.70423140	      0.56097069	      1.06087157	     -0.30729274	      1.98097691	    -13.94593528	      3.81573474	    -61.99669017	    -17.76673718	     -2.54669802	      0.00000000	      1.83793635	     -5.92330949	      2.85313111	    -60.92532671	     -6.79743717	     26.71323037	      0.00000000	      0.00000000	      0.00000000	      0.00000000
      5.26000000	     65.57185045	      5.27609203	     -1.69155884	      0.56096608	      1.06082986	     -0.30726960	      1.93005481	    -13.98970288	      3.95993085	    -62.02725564	    -17.55011182	     -2.42211439	      0.00000000	      1.84662666	     -5.99335504	      3.06320832	    -61.09247085	     -6.82781725	     26.43480631	      0.00000000	      0.00000000	      0.00000000	      0.00000000
      5.27000000	     65.56804189	      5.30124515	     -1.68098995	      0.56094837	      1.06083661	     -0.30727049	      1.89598938	    -14.03308548	      4.08018712	    -62.09495326	    -17.39686093	     -2.34608689	      0.00000000	      1.84883279	     -6.06052857	      3.26954103	    -61.25869346	     -6.86719521	     26.13494725	      0.00000000	      0.00000000	      0.00000000	      0.00000000
      5.28000000	     65.56685531	      5.32206562	     -1.67291726	      0.56094805	      1.06083596	     -0.30729361	      1.87948661	    -14.07791444	      4.17720825	    -62.19393224	    -17.31064859	     -2.32138719	      0.00000000	      1.84722666	     -6.12494376	      3.47211897	    -61.42743113	     -6.91031561	     25.81493908	      0.00000000	      0.00000000	      0.00000000	      0.00000000
      5.29000000	     65.56566514	      5.33877079	     -1.66610121	      0.56096979	      1.06080352	     -0.30732665	      1.87828030	    -14.12340626	      4.25525815	    -62.30955965	    -17.28179928	     -2.34125507	      0.00000000	      1.84534479	     -6.18578909	      3.66913697	    -61.60244030	     -6.95051356	     25.47849771	      0.00000000	      0.00000000	      0.00000000	      0.00000000
      5.30000000	     65.56219806	      5.35237810	     -1.65878158	      0.56099455	      1.06074899	     -0.30735696	      1.88831058	    -14.16686506	      4.31948057	    -62.42629292	    -17.29188034	     -2.39206447	      0.00000000	      1.84636694	     -6.24238810	      3.85771111	    -61.78559608	     -6.98179927	     25.13135945	      0.00000000	      0.00000000	      0.00000000	      0.00000000
      5.31000000	     65.55502373	      5.36405083	     -1.65013154	      0.56100172	      1.06069654	     -0.30738164	      1.90454912	    -14.20571155	      4.37417674	    -62.53364229	    -17.31970064	     -2.45713580	      0.00000000	      1.85294171	     -6.29543428	      4.03508773	    -61.97562467	     -7.00103352	     24.78084000	      0.00000000	      0.00000000	      0.00000000	      0.00000000
      5.32000000	     65.54388701	      5.37415253	     -1.64046084	      0.56098912	      1.06066120	     -0.30740462	      1.92228884	    -14.23880254	      4.42202500	    -62.62798333	    -17.34677799	     -2.52056707	      0.00000000	      1.86691531	     -6.34654402	      4.19896840	    -62.16857313	     -7.00908238	     24.43547644	      0.00000000	      0.00000000	      0.00000000	      0.00000000
      5.33000000	     65.52952051	      5.38191964	     -1.63036868	      0.56097220	      1.06063953	     -0.30742698	      1.93872755	    -14.26631066	      4.46398469	    -62.71073138	    -17.36092424	     -2.57022136	      0.00000000	      1.88846005	     -6.39675674	      4.34719424	    -62.35976922	     -7.01028137	     24.10450236	      0.00000000	      0.00000000	      0.00000000	      0.00000000
      5.34000000	     65.51316965	      5.38649991	     -1.62039138	      0.56096795	      1.06062012	     -0.30744824	      1.95363179	    -14.28890957	      4.49978621	    -62.78512934	    -17.35741632	     -2.59940170	      0.00000000	      1.91570334	     -6.44593235	      4.47796624	    -62.54587581	     -7.01049840	     23.79693794	      0.00000000	      0.00000000	      0.00000000	      0.00000000
      5.35000000	     65.49616544	      5.38832703	     -1.61144912	      0.56097783	      1.06059805	     -0.30747109	      1.96849161	    -14.30722926	      4.52884011	    -62.85381428	    -17.33798715	     -2.60710117	      0.00000000	      1.94557106	     -6.49336815	      4.59064040	    -62.72570948	     -7.01480431	     23.52042962	      0.00000000	      0.00000000	      0.00000000	      0.00000000
      5.36000000	     65.47972548	      5.38917181	     -1.60494672	      0.56098429	      1.06057656	     -0.30749377	      1.98495322	    -14.32178665	      4.55107184	    -62.91795981	    -17.30841388	     -2.59700022	      0.00000000	      1.97524979	     -6.53832311	      4.68594832	    -62.89952562	     -7.02577529	     23.28025395	      0.00000000	      0.00000000	      0.00000000	      0.00000000
      5.37000000	     65.46506992	      5.39056325	     -1.60193269	      0.56097394	      1.06055660	     -0.30750242	      2.00361683	    -14.33308125	      4.56714473	    -62.97752060	    -17.27571424	     -2.57561115	      0.00000000	      2.00339415	     -6.57959981	      4.76495604	    -63.06751679	     -7.04301841	     23.07892091	      0.00000000	      0.00000000	      0.00000000	      0.00000000
      5.38000000	     65.45322431	      5.39268265	     -1.60225054	      0.56095500	      1.06053284	     -0.30748379	      2.02380559	    -14.34162849	      4.57800837	    -63.03168681	    -17.24583905	     -2.55010864	      0.00000000	      2.03001282	     -6.61535585	      4.82783956	    -63.22907736	     -7.06392509	     22.91658425	      0.00000000	      0.00000000	      0.00000000	      0.00000000
